<svg width="76" height="84" viewBox="0 0 76 84" fill="none" xmlns="http://www.w3.org/2000/svg">
<path d="M71.1364 41.472C72.6084 41.472 73.6644 41.792 74.3044 42.432C75.0084 43.072 75.3604 43.904 75.3604 44.928C75.3604 46.592 74.8484 48.064 73.8244 49.344C72.8644 50.624 71.3284 51.296 69.2164 51.36C64.0964 51.488 59.5524 51.104 55.5844 50.208C51.0404 59.744 45.5364 67.68 39.0724 74.016C32.6724 80.288 26.2404 83.424 19.7764 83.424C13.1204 83.424 8.16038 79.552 4.89638 71.808C1.63238 64.064 0.000383139 53.6 0.000383139 40.416C0.000383139 29.152 0.800383 19.04 2.40038 10.08C2.97638 6.752 3.77638 4.512 4.80038 3.35999C5.88838 2.144 7.71238 1.536 10.2724 1.536C14.4964 1.536 16.6084 3.36 16.6084 7.008C16.6084 7.392 16.5444 8.096 16.4164 9.12C14.4964 20.64 13.5364 31.072 13.5364 40.416C13.5364 50.208 14.3364 57.664 15.9364 62.784C17.6004 67.84 20.0644 70.368 23.3284 70.368C26.6564 70.368 30.2724 68.064 34.1764 63.456C38.0804 58.848 41.6644 53.056 44.9284 46.08C41.0244 43.648 38.0804 40.512 36.0964 36.672C34.1124 32.768 33.1204 28.288 33.1204 23.232C33.1204 18.176 33.8884 13.92 35.4244 10.464C37.0244 6.94399 39.1684 4.32 41.8564 2.592C44.6084 0.863998 47.6484 -1.90735e-06 50.9764 -1.90735e-06C55.0724 -1.90735e-06 58.3044 1.472 60.6724 4.416C63.1044 7.36 64.3204 11.392 64.3204 16.512C64.3204 23.872 62.7204 31.904 59.5204 40.608C62.9124 41.184 66.7844 41.472 71.1364 41.472ZM42.8164 22.56C42.8164 28.832 44.8324 33.472 48.8644 36.48C51.3604 29.312 52.6084 23.392 52.6084 18.72C52.6084 16.032 52.2564 14.08 51.5524 12.864C50.8484 11.584 49.8884 10.944 48.6724 10.944C46.9444 10.944 45.5364 11.968 44.4484 14.016C43.3604 16 42.8164 18.848 42.8164 22.56Z" fill="white"/>
</svg>
